<svg xmlns="http://www.w3.org/2000/svg" width="1200" height="675" viewBox="0 0 1200 675"><rect width="100%" height="100%" fill="#DDDDDD"/><path fill="#999999" d="M284.5 354.25q.93 0 1.66.72l4.5 4.89q-3.74 4.63-9.2 7.09-5.46 2.47-13.11 2.47-6.84 0-12.3-2.34-5.47-2.34-9.33-6.5-3.87-4.17-5.93-9.95-2.06-5.78-2.06-12.62 0-6.93 2.21-12.68 2.21-5.76 6.22-9.93 4.02-4.16 9.59-6.48 5.56-2.32 12.32-2.32 6.72 0 11.92 2.21 5.21 2.21 8.86 5.78l-3.82 5.32q-.34.51-.87.89t-1.47.38q-.64 0-1.32-.36t-1.48-.89q-.81-.53-1.87-1.17-1.07-.64-2.47-1.17-1.4-.53-3.25-.89t-4.27-.36q-4.12 0-7.54 1.46-3.43 1.47-5.89 4.25-2.47 2.79-3.83 6.8-1.36 4.02-1.36 9.16 0 5.19 1.47 9.22 1.47 4.04 3.97 6.8 2.51 2.77 5.91 4.23 3.4 1.47 7.31 1.47 2.34 0 4.23-.26 1.89-.25 3.49-.8 1.59-.56 3.01-1.43 1.43-.87 2.83-2.14.42-.39.89-.62.47-.23.98-.23Zm31.66-29.8q4.85 0 8.82 1.58 3.97 1.57 6.8 4.46 2.83 2.89 4.36 7.05 1.53 4.17 1.53 9.31 0 5.19-1.53 9.35-1.53 4.17-4.36 7.1-2.83 2.93-6.8 4.5-3.97 1.58-8.82 1.58-4.89 0-8.88-1.58-4-1.57-6.82-4.5-2.83-2.93-4.38-7.1-1.55-4.16-1.55-9.35 0-5.14 1.55-9.31 1.55-4.16 4.38-7.05 2.82-2.89 6.82-4.46 3.99-1.58 8.88-1.58Zm0 36.85q5.44 0 8.06-3.65 2.61-3.66 2.61-10.71 0-7.06-2.61-10.75-2.62-3.7-8.06-3.7-5.52 0-8.18 3.72-2.66 3.71-2.66 10.73 0 7.01 2.66 10.69 2.66 3.67 8.18 3.67Zm60.56-36.17h8.29l-17.3 43.61h-9.52l-17.29-43.61h8.67q1.19 0 1.97.56.79.55 1.04 1.4l8.42 23.29q.68 2.04 1.19 3.99.51 1.96.89 3.91.43-1.95.94-3.91.51-1.95 1.23-3.99l8.58-23.29q.3-.85 1.07-1.4.76-.56 1.82-.56Zm22.15 16.79h19.8q0-2.04-.57-3.84-.58-1.81-1.72-3.17-1.15-1.36-2.91-2.15-1.77-.78-4.11-.78-4.54 0-7.16 2.59-2.61 2.59-3.33 7.35Zm26.77 6.33h-26.99q.26 3.36 1.19 5.81.94 2.44 2.47 4.03 1.53 1.6 3.63 2.38 2.11.79 4.66.79 2.55 0 4.4-.6 1.84-.59 3.23-1.31 1.38-.73 2.42-1.32 1.04-.6 2.02-.6 1.31 0 1.95.98l3.02 3.83q-1.74 2.04-3.91 3.42t-4.53 2.21q-2.36.83-4.8 1.17-2.44.34-4.74.34-4.55 0-8.46-1.51-3.91-1.51-6.8-4.46-2.89-2.96-4.54-7.31-1.66-4.36-1.66-10.1 0-4.46 1.44-8.39 1.45-3.93 4.15-6.84 2.7-2.92 6.59-4.62 3.88-1.7 8.77-1.7 4.12 0 7.61 1.32 3.48 1.32 5.99 3.85 2.51 2.53 3.93 6.2 1.43 3.68 1.43 8.4 0 2.38-.51 3.21-.51.82-1.96.82Zm19.59-20.48.64 4.93q2.04-3.91 4.85-6.14 2.8-2.23 6.63-2.23 3.01 0 4.84 1.31l-.68 7.87q-.21.76-.61 1.08-.41.32-1.09.32-.64 0-1.89-.21-1.25-.22-2.44-.22-1.75 0-3.11.51-1.36.52-2.44 1.47-1.08.96-1.91 2.32-.83 1.36-1.55 3.1v26.86h-10.5v-43.61h6.16q1.62 0 2.25.58.64.57.85 2.06Zm52.19-.72.73 3.44q1.31-1.32 2.78-2.44 1.47-1.13 3.1-1.92 1.64-.78 3.51-1.23 1.87-.45 4.08-.45 3.57 0 6.33 1.22 2.76 1.21 4.61 3.4 1.85 2.19 2.81 5.22.95 3.04.95 6.7v27.75h-10.49v-27.75q0-4-1.83-6.19-1.83-2.19-5.57-2.19-2.72 0-5.1 1.24-2.38 1.23-4.5 3.35v31.54h-10.5v-43.61h6.42q2.04 0 2.67 1.92Zm58.14-2.6q4.85 0 8.82 1.58 3.98 1.57 6.8 4.46 2.83 2.89 4.36 7.05 1.53 4.17 1.53 9.31 0 5.19-1.53 9.35-1.53 4.17-4.36 7.1-2.82 2.93-6.8 4.5-3.97 1.58-8.82 1.58-4.88 0-8.88-1.58-3.99-1.57-6.82-4.5-2.83-2.93-4.38-7.1-1.55-4.16-1.55-9.35 0-5.14 1.55-9.31 1.55-4.16 4.38-7.05 2.83-2.89 6.82-4.46 4-1.58 8.88-1.58Zm0 36.85q5.44 0 8.06-3.65 2.61-3.66 2.61-10.71 0-7.06-2.61-10.75-2.62-3.7-8.06-3.7-5.52 0-8.18 3.72-2.65 3.71-2.65 10.73 0 7.01 2.65 10.69 2.66 3.67 8.18 3.67Zm44.08 8.12q-5.7 0-8.74-3.21t-3.04-8.86V333h-4.46q-.85 0-1.44-.56-.6-.55-.6-1.65v-4.17l7.01-1.15 2.21-11.9q.22-.85.81-1.31.6-.47 1.53-.47h5.44v13.73h11.65V333h-11.65v23.63q0 2.04 1 3.18 1 1.15 2.74 1.15.98 0 1.64-.23.66-.24 1.15-.49.48-.26.87-.49.38-.23.76-.23.47 0 .77.23.29.23.63.7l3.15 5.1q-2.3 1.91-5.27 2.89-2.98.98-6.16.98Zm60.77-11.94v-7.36q-4.55.22-7.65.79-3.1.57-4.97 1.47-1.87.89-2.68 2.08t-.81 2.59q0 2.76 1.64 3.95 1.64 1.19 4.27 1.19 3.23 0 5.59-1.16 2.36-1.17 4.61-3.55Zm-22.18-22.91-1.87-3.36q7.52-6.88 18.1-6.88 3.83 0 6.84 1.25 3.02 1.25 5.1 3.49 2.09 2.23 3.17 5.33t1.08 6.8v27.54h-4.76q-1.48 0-2.29-.45-.81-.44-1.28-1.8l-.93-3.15q-1.66 1.49-3.23 2.62-1.57 1.12-3.27 1.89-1.7.76-3.64 1.17-1.93.4-4.27.4-2.76 0-5.1-.74-2.34-.75-4.04-2.24-1.7-1.48-2.63-3.69-.94-2.21-.94-5.15 0-1.65.56-3.29.55-1.64 1.8-3.12 1.26-1.49 3.25-2.81 2-1.32 4.91-2.29 2.91-.98 6.78-1.6 3.87-.61 8.84-.74v-2.55q0-4.38-1.87-6.48-1.87-2.11-5.4-2.11-2.55 0-4.22.6-1.68.59-2.96 1.34-1.27.74-2.31 1.34-1.05.59-2.32.59-1.11 0-1.87-.57-.77-.58-1.23-1.34Zm73.31-9.44h8.29l-17.3 43.61h-9.52l-17.3-43.61h8.67q1.19 0 1.98.56.78.55 1.04 1.4l8.41 23.29q.68 2.04 1.19 3.99.51 1.96.9 3.91.42-1.95.93-3.91.51-1.95 1.23-3.99l8.59-23.29q.3-.85 1.06-1.4.77-.56 1.83-.56Zm36.89 32.35v-7.36q-4.55.22-7.65.79-3.1.57-4.97 1.47-1.87.89-2.68 2.08t-.81 2.59q0 2.76 1.64 3.95 1.63 1.19 4.27 1.19 3.23 0 5.59-1.16 2.36-1.17 4.61-3.55Zm-22.19-22.91-1.87-3.36q7.53-6.88 18.11-6.88 3.82 0 6.84 1.25t5.1 3.49q2.08 2.23 3.17 5.33 1.08 3.1 1.08 6.8v27.54h-4.76q-1.49 0-2.29-.45-.81-.44-1.28-1.8l-.93-3.15q-1.66 1.49-3.23 2.62-1.58 1.12-3.28 1.89-1.7.76-3.63 1.17-1.93.4-4.27.4-2.76 0-5.1-.74-2.34-.75-4.04-2.24-1.7-1.48-2.63-3.69-.94-2.21-.94-5.15 0-1.65.55-3.29.56-1.64 1.81-3.12 1.25-1.49 3.25-2.81t4.91-2.29q2.91-.98 6.78-1.6 3.87-.61 8.84-.74v-2.55q0-4.38-1.87-6.48-1.87-2.11-5.4-2.11-2.55 0-4.23.6-1.68.59-2.95 1.34l-2.32 1.34q-1.04.59-2.31.59-1.11 0-1.87-.57-.77-.58-1.24-1.34Zm42.63-9.44h10.54v43.61h-10.54v-43.61Zm11.99-12.7q0 1.36-.56 2.55-.55 1.19-1.46 2.08-.92.89-2.15 1.42-1.23.53-2.63.53-1.36 0-2.58-.53-1.21-.53-2.1-1.42-.89-.89-1.42-2.08-.53-1.19-.53-2.55 0-1.41.53-2.64.53-1.23 1.42-2.12.89-.9 2.1-1.43 1.22-.53 2.58-.53 1.4 0 2.63.53t2.15 1.43q.91.89 1.46 2.12.56 1.23.56 2.64Zm9.39-6.85h10.5v63.16h-10.5v-63.16Zm44.03 51.9v-7.36q-4.55.22-7.65.79-3.1.57-4.97 1.47-1.87.89-2.68 2.08t-.81 2.59q0 2.76 1.64 3.95 1.63 1.19 4.27 1.19 3.23 0 5.59-1.16 2.36-1.17 4.61-3.55Zm-22.19-22.91-1.87-3.36q7.53-6.88 18.11-6.88 3.82 0 6.84 1.25t5.1 3.49q2.08 2.23 3.17 5.33 1.08 3.1 1.08 6.8v27.54h-4.76q-1.49 0-2.29-.45-.81-.44-1.28-1.8l-.93-3.15q-1.66 1.49-3.23 2.62-1.58 1.12-3.28 1.89-1.7.76-3.63 1.17-1.93.4-4.27.4-2.76 0-5.1-.74-2.34-.75-4.04-2.24-1.7-1.48-2.63-3.69-.94-2.21-.94-5.15 0-1.65.55-3.29.56-1.64 1.81-3.12 1.25-1.49 3.25-2.81t4.91-2.29q2.91-.98 6.78-1.6 3.87-.61 8.84-.74v-2.55q0-4.38-1.87-6.48-1.87-2.11-5.4-2.11-2.55 0-4.23.6-1.68.59-2.95 1.34l-2.32 1.34q-1.04.59-2.31.59-1.11 0-1.87-.57-.77-.58-1.24-1.34Zm52.79 3.31v19.55q1.78 2.17 3.89 3.06 2.1.9 4.44.9 2.42 0 4.36-.87 1.93-.88 3.29-2.72 1.36-1.85 2.08-4.72.72-2.87.72-6.87 0-7.18-2.38-10.39-2.38-3.21-6.84-3.21-3.02 0-5.27 1.39-2.25 1.38-4.29 3.88Zm0-32.3v24.91q2.63-2.76 5.84-4.4 3.21-1.64 7.33-1.64 3.79 0 6.83 1.49 3.03 1.49 5.18 4.27 2.15 2.79 3.29 6.74 1.15 3.95 1.15 8.88 0 5.31-1.32 9.65-1.31 4.33-3.76 7.42-2.44 3.08-5.88 4.78-3.45 1.7-7.65 1.7-2.04 0-3.7-.41-1.66-.4-3.06-1.12-1.4-.73-2.57-1.77t-2.23-2.31l-.47 2.93q-.26 1.1-.87 1.57-.62.47-1.68.47h-6.93v-63.16h10.5Zm37.87 0h10.49v63.16h-10.49v-63.16Zm29.28 36.34h19.8q0-2.04-.57-3.84-.57-1.81-1.72-3.17-1.15-1.36-2.91-2.15-1.77-.78-4.1-.78-4.55 0-7.16 2.59-2.62 2.59-3.34 7.35Zm26.77 6.33h-26.98q.25 3.36 1.19 5.81.93 2.44 2.46 4.03 1.53 1.6 3.64 2.38 2.1.79 4.65.79 2.55 0 4.4-.6 1.85-.59 3.23-1.31 1.38-.73 2.42-1.32 1.04-.6 2.02-.6 1.32 0 1.95.98l3.02 3.83q-1.74 2.04-3.91 3.42t-4.52 2.21q-2.36.83-4.81 1.17-2.44.34-4.74.34-4.54 0-8.45-1.51-3.91-1.51-6.8-4.46-2.89-2.96-4.55-7.31-1.66-4.36-1.66-10.1 0-4.46 1.45-8.39 1.44-3.93 4.14-6.84 2.7-2.92 6.59-4.62 3.89-1.7 8.77-1.7 4.13 0 7.61 1.32 3.49 1.32 5.99 3.85 2.51 2.53 3.94 6.2 1.42 3.68 1.42 8.4 0 2.38-.51 3.21-.51.82-1.96.82Z"/></svg>